<svg xmlns="http://www.w3.org/2000/svg" width="235.077" height="152.154" viewBox="0 0 235.077 152.154">
  <g id="Group_2" data-name="Group 2" transform="translate(-29 -883.923)">
    <g id="Union_2" data-name="Union 2" transform="translate(29 912)" fill="#fff">
      <path d="M 76.82261657714844 123.4997940063477 C 69.73198699951172 123.4997940063477 62.84717178344727 122.7074279785156 56.35940933227539 121.1446914672852 C 50.10122299194336 119.6372680664063 44.46261978149414 117.4774017333984 39.60017395019531 114.7251358032227 C 34.7611198425293 111.9861145019531 30.9272518157959 108.7945556640625 28.2050666809082 105.2391128540039 C 25.41306686401367 101.5924530029297 23.91590881347656 97.71479797363281 23.75525093078613 93.71387481689453 L 23.7447509765625 93.45247650146484 L 23.52401351928711 93.31205749511719 C 20.41454124450684 91.33395385742188 17.51548767089844 88.97950744628906 14.90732955932617 86.31414031982422 L 14.89996147155762 86.306640625 C 14.85561943054199 86.26129913330078 14.81256675720215 86.21714019775391 14.77101421356201 86.17429351806641 L 14.76711940765381 86.17031860351563 C 14.68185615539551 86.08248138427734 14.59593486785889 85.99329376220703 14.51130390167236 85.90476989746094 L 14.49938297271729 85.89229583740234 L 14.48680400848389 85.87911224365234 C 14.45298767089844 85.84371948242188 14.41827774047852 85.80726623535156 14.38461971282959 85.77176666259766 L 14.36693477630615 85.75316619873047 L 14.35972499847412 85.74555969238281 C 14.31893539428711 85.70250701904297 14.27785587310791 85.6590576171875 14.23693561553955 85.61556243896484 L 14.22940921783447 85.60752868652344 L 14.12001419067383 85.4908447265625 L 14.08956718444824 85.45821380615234 L 14.07585620880127 85.4434814453125 L 14.00385665893555 85.36605834960938 L 13.95275115966797 85.31092834472656 L 13.87867164611816 85.23063659667969 L 13.81019878387451 85.15616607666016 L 13.73088264465332 85.06955718994141 L 13.70138263702393 85.03713989257813 L 13.671067237854 85.00387573242188 L 13.65404033660889 84.98511505126953 L 13.61759281158447 84.94497680664063 L 13.55396175384521 84.87468719482422 L 13.50790882110596 84.82355499267578 C 13.42761898040771 84.73445129394531 13.34819793701172 84.64563751220703 13.26883029937744 84.55621337890625 L 13.26422500610352 84.55100250244141 L 13.23538303375244 84.51853179931641 L 13.15793514251709 84.43090057373047 L 13.14688301086426 84.41835021972656 L 13.13280391693115 84.40235137939453 C 13.04335594177246 84.30074310302734 12.95461940765381 84.19913482666016 12.86575126647949 84.09650421142578 L 12.8590669631958 84.08879852294922 L 12.76498794555664 83.97976684570313 L 12.76472473144531 83.97945404052734 L 12.76130390167236 83.97547912597656 L 12.75775146484375 83.97137451171875 C 6.968698501586914 77.24116516113281 3.036303520202637 69.01229858398438 1.386593103408813 60.17539978027344 C 1.349198341369629 59.97516250610352 1.312487840652466 59.77174377441406 1.277251005172729 59.56977081298828 L 1.275040507316589 59.5570068359375 L 1.274145722389221 59.55192565917969 C 1.240487813949585 59.3585319519043 1.207329988479614 59.16116333007813 1.17561936378479 58.96574401855469 L 1.16933000087738 58.92689895629883 L 1.14848780632019 58.79697799682617 L 1.143593072891235 58.76603317260742 C 1.122145771980286 58.63029479980469 1.101066827774048 58.49377059936523 1.080566763877869 58.35711288452148 L 1.076277256011963 58.3284797668457 L 1.072908878326416 58.30605697631836 L 1.054961562156677 58.18461227416992 L 1.051277279853821 58.15934753417969 L 1.047803640365601 58.13563919067383 C 1.028882622718811 58.00561141967773 1.010356307029724 57.875244140625 0.9923299551010132 57.74442672729492 L 0.9894878268241882 57.72379684448242 L 0.9841983914375305 57.68553161621094 L 0.9686720371246338 57.57100677490234 L 0.9626457095146179 57.52590179443359 L 0.9604352116584778 57.50937271118164 L 0.9577773213386536 57.48937606811523 L 0.9453562498092651 57.39558410644531 L 0.9394351840019226 57.34995269775391 L 0.9375141263008118 57.33510971069336 C 0.9287509918212891 57.26771545410156 0.9199352264404297 57.19863891601563 0.9114615321159363 57.13137435913086 L 0.908356249332428 57.10674285888672 L 0.9029878377914429 57.06392669677734 L 0.889356255531311 56.9534797668457 L 0.8866193890571594 56.93100738525391 L 0.8808825612068176 56.88376998901367 L 0.8680404424667358 56.77705764770508 L 0.861829936504364 56.72439956665039 L 0.8588299155235291 56.69884872436523 C 0.8520668148994446 56.64121627807617 0.8452510237693787 56.58213806152344 0.8386457562446594 56.52424240112305 L 0.8364878296852112 56.50542831420898 L 0.8286983370780945 56.43684768676758 L 0.8179615139961243 56.3399543762207 L 0.8086194396018982 56.2550048828125 L 0.8059089183807373 56.22990036010742 L 0.7980667948722839 56.15716552734375 L 0.7883299589157104 56.06508636474609 L 0.7740930914878845 55.92776870727539 L 0.7624089121818542 55.81292724609375 L 0.7547246813774109 55.73540115356445 L 0.7528299689292908 55.7159538269043 L 0.7443036437034607 55.62871551513672 L 0.7353036403656006 55.53453063964844 L 0.7265141606330872 55.44076919555664 L 0.7253299355506897 55.42800521850586 L 0.7180930972099304 55.34987640380859 C 0.713093101978302 55.29513931274414 0.7079614996910095 55.23768997192383 0.7031720280647278 55.18337631225586 L 0.6979352235794067 55.12303161621094 L 0.6958562731742859 55.09882354736328 L 0.6873562335968018 54.99982070922852 L 0.6799088716506958 54.91071701049805 L 0.6712772846221924 54.80461120605469 L 0.6704615354537964 54.79450607299805 L 0.6649878621101379 54.72655868530273 C 0.6603825688362122 54.66866302490234 0.6559088826179504 54.61079406738281 0.6514878273010254 54.55287551879883 L 0.6483826041221619 54.51108551025391 L 0.6464089155197144 54.48419189453125 L 0.6377509832382202 54.36698150634766 L 0.632093071937561 54.28792572021484 L 0.624172031879425 54.17369079589844 L 0.6231457591056824 54.15903091430664 L 0.6189878582954407 54.097900390625 C 0.6150667667388916 54.03961181640625 0.6113036274909973 53.98268890380859 0.6076194047927856 53.92466354370117 L 0.6050931215286255 53.88437271118164 L 0.595698356628418 53.73211288452148 L 0.5928036570549011 53.68363952636719 L 0.5916457176208496 53.66390228271484 L 0.584303617477417 53.53634643554688 L 0.5830667614936829 53.51440048217773 L 0.5805931091308594 53.47063827514648 L 0.5723825693130493 53.31747817993164 L 0.5713825821876526 53.29892730712891 L 0.5704615116119385 53.28142547607422 C 0.5673825740814209 53.2216911315918 0.5643036365509033 53.1590576171875 0.5614088773727417 53.09906005859375 L 0.5587509870529175 53.04266357421875 L 0.5583299398422241 53.03411102294922 L 0.5524615049362183 52.90605926513672 L 0.5509352087974548 52.87137603759766 L 0.5493825674057007 52.83611297607422 L 0.5435931086540222 52.69660949707031 L 0.5429089069366455 52.68013763427734 L 0.541566789150238 52.64766311645508 C 0.5391194224357605 52.58584976196289 0.5368825793266296 52.52600479125977 0.5346457362174988 52.464111328125 L 0.5336194038391113 52.4351921081543 L 0.5325667858123779 52.40500640869141 L 0.5278825759887695 52.26589965820313 L 0.5260404944419861 52.20811080932617 L 0.5216720700263977 52.06208419799805 L 0.5210931301116943 52.04221725463867 L 0.5202773213386536 52.01366424560547 C 0.5185404419898987 51.95127105712891 0.5169088840484619 51.8879280090332 0.5154352188110352 51.82590103149414 L 0.5145667791366577 51.78784942626953 L 0.5143036246299744 51.77634811401367 L 0.5111720561981201 51.63382339477539 L 0.5098825693130493 51.56771850585938 L 0.5073825716972351 51.42916488647461 L 0.506935179233551 51.40224456787109 L 0.5064878463745117 51.37579727172852 C 0.5055141448974609 51.31229400634766 0.5046194195747375 51.24992752075195 0.5038825869560242 51.18597793579102 L 0.5035404562950134 51.15419006347656 C 0.5029352307319641 51.1010856628418 0.502356231212616 51.04511260986328 0.5019351840019226 50.99295425415039 L 0.5016193985939026 50.95298004150391 L 0.5014615058898926 50.93295288085938 L 0.5006457567214966 50.79306030273438 L 0.5005141496658325 50.76408386230469 L 0.5003826022148132 50.73540115356445 C 0.5001457333564758 50.67158508300781 0.5000141263008118 50.60805892944336 0.5000141263008118 50.54389953613281 C 0.5000141263008118 43.78519058227539 1.767856240272522 37.22911071777344 4.268356323242188 31.05771636962891 C 6.683119297027588 25.09798049926758 10.13980388641357 19.74579620361328 14.54240894317627 15.14987468719482 C 18.94359397888184 10.55545330047607 24.06809234619141 6.948585033416748 29.77356719970703 4.42940092086792 C 35.67877578735352 1.82205867767334 41.95169830322266 0.5000060796737671 48.41809463500977 0.5000060796737671 L 48.56001281738281 0.5002429485321045 L 48.60583114624023 0.5004271268844604 L 48.70427703857422 0.5009271502494812 L 48.73977661132813 0.5011376738548279 L 48.75432968139648 0.5012429356575012 L 48.85235595703125 0.5020586848258972 L 48.89953994750977 0.5025060772895813 L 49.02285766601563 0.5039271116256714 L 49.03282928466797 0.5040587186813354 L 49.04025268554688 0.5041376352310181 L 49.18335723876953 0.5062429308891296 L 49.21319961547852 0.5067955255508423 L 49.22232818603516 0.5069534778594971 L 49.32743453979492 0.5088481903076172 L 49.35209274291992 0.5093482136726379 L 49.37754058837891 0.5098481774330139 L 49.47175216674805 0.5118744969367981 L 49.51951599121094 0.5129797458648682 L 49.63193511962891 0.5157692432403564 L 49.64393615722656 0.5160850286483765 L 49.66127777099609 0.5165324211120605 L 49.80706787109375 0.5206113457679749 L 49.81235504150391 0.5207692384719849 L 49.81867218017578 0.5209797620773315 L 49.94853973388672 0.5250586867332458 L 49.99230194091797 0.5265324115753174 L 50.09111785888672 0.5299534201622009 L 50.1408576965332 0.5317692160606384 L 50.24688339233398 0.5357955694198608 L 50.27962112426758 0.5370587110519409 L 50.41617202758789 0.5427166223526001 L 50.42390823364258 0.5430324077606201 L 50.57140731811523 0.5496376752853394 L 50.58280181884766 0.5501639842987061 L 50.59538269042969 0.5507429242134094 L 50.71353912353516 0.5564008355140686 L 50.73172378540039 0.5573218464851379 L 50.75017166137695 0.5582429170608521 L 50.86727905273438 0.5642692446708679 L 50.88098907470703 0.5649797916412354 L 50.89388275146484 0.5656376481056213 L 51.03267288208008 0.5732166171073914 C 51.13525009155273 0.5789797902107239 51.23301315307617 0.584821879863739 51.33085632324219 0.5909271240234375 L 51.34609222412109 0.5919008255004883 L 51.36298751831055 0.5929797887802124 L 51.48009490966797 0.6005324125289917 L 51.493408203125 0.6014007925987244 L 51.50635528564453 0.6022429466247559 L 51.63983154296875 0.6112955808639526 L 51.64456558227539 0.6116376519203186 L 51.64493560791016 0.6116639971733093 L 51.64985656738281 0.6120060682296753 C 51.74946212768555 0.6189271211624146 51.84906768798828 0.6261639595031738 51.94851303100586 0.6337429285049438 L 51.95922470092773 0.6345850229263306 L 52.09722518920898 0.6452955603599548 L 52.10409164428711 0.6458482146263123 L 52.1104621887207 0.6463481783866882 L 52.24764633178711 0.6574797630310059 L 52.25432968139648 0.6580324172973633 L 52.26038360595703 0.6585323810577393 C 52.40975189208984 0.670900821685791 52.55996322631836 0.6840850114822388 52.70914459228516 0.6979008316993713 L 52.85425186157227 0.7115850448608398 L 52.86156845092773 0.7122955322265625 L 52.86985778808594 0.7130850553512573 C 53.06775283813477 0.7321113348007202 53.26859283447266 0.7527429461479187 53.46564483642578 0.7742955684661865 L 53.46733093261719 0.7744797468185425 L 53.47103881835938 0.7748745083808899 C 55.45348739624023 0.9916902780532837 57.44269943237305 1.341927170753479 59.38009262084961 1.815479755401611 L 59.40814590454102 1.822321891784668 L 59.40823745727539 1.822333455085754 C 59.58858489990234 1.866552591323853 59.77021789550781 1.91225528717041 59.9486198425293 1.958269238471985 L 59.96617126464844 1.962821841239929 L 60.08877563476563 1.994663953781128 L 60.09967041015625 1.997532367706299 L 60.10832977294922 1.99979555606842 C 60.20027160644531 2.02386736869812 60.29277038574219 2.048374891281128 60.38492584228516 2.073117971420288 L 60.38527679443359 2.073216676712036 L 60.38959121704102 2.074374437332153 L 60.51946258544922 2.109479665756226 L 60.55104064941406 2.118085145950317 L 60.65164566040039 2.14561128616333 L 60.69088363647461 2.156427145004272 L 60.79148864746094 2.184321880340576 L 60.80343627929688 2.187637567520142 L 60.82625198364258 2.193979740142822 L 60.95698928833008 2.230690240859985 L 60.97011947631836 2.234427213668823 L 60.98561859130859 2.238821983337402 L 61.08656692504883 2.267506122589111 L 61.13685607910156 2.281900882720947 L 61.21862030029297 2.305453538894653 L 61.26306533813477 2.318295478820801 L 61.27175140380859 2.320821762084961 L 61.35038375854492 2.343742847442627 L 61.37085723876953 2.349690198898315 L 61.40448760986328 2.359506130218506 L 61.49846267700195 2.387216567993164 L 61.51543426513672 2.392269134521484 L 61.56803894042969 2.407874584197998 L 61.65427780151367 2.433584928512573 L 61.72541046142578 2.454979658126831 L 61.78127670288086 2.471848249435425 L 61.85533142089844 2.494321823120117 L 61.90606689453125 2.509821891784668 L 61.98696136474609 2.534611225128174 L 62.00377655029297 2.539821863174438 L 62.02188110351563 2.545400857925415 C 62.12338256835938 2.576716661453247 62.22567367553711 2.60869026184082 62.32706832885742 2.640743017196655 L 62.34438323974609 2.646216630935669 L 62.4415397644043 2.677137613296509 L 62.45351409912109 2.680953502655029 L 62.46625137329102 2.685006141662598 L 62.56406784057617 2.716400861740112 L 62.57083129882813 2.718611240386963 L 62.57880401611328 2.721190214157104 C 62.99548721313477 2.855637550354004 63.41356658935547 2.997111320495605 63.82343673706055 3.142374515533447 L 63.97959136962891 3.197742938995361 L 64.13793182373047 3.148874521255493 C 66.93517303466797 2.285479784011841 69.89985656738281 1.847690343856812 72.94959259033203 1.847690343856812 C 76.95262145996094 1.847690343856812 80.90198516845703 2.627111434936523 84.37075042724609 4.1017165184021 L 84.56533050537109 4.184427261352539 L 84.76022338867188 4.102453231811523 C 90.44293212890625 1.712032437324524 96.46027374267578 0.5000060796737671 102.6451187133789 0.5000060796737671 C 106.3329315185547 0.5000060796737671 110.006721496582 0.9389797449111938 113.5644378662109 1.804769277572632 C 117.0238265991211 2.646611452102661 120.3986740112305 3.897637605667114 123.5952529907227 5.523032188415527 C 126.7351226806641 7.119637489318848 129.7169952392578 9.084190368652344 132.4579620361328 11.36216354370117 C 135.1820373535156 13.62603282928467 137.6757049560547 16.20550537109375 139.8697052001953 19.02890014648438 L 140.1002960205078 19.32566452026367 L 140.449462890625 19.18663787841797 C 146.7931213378906 16.66087532043457 154.0350646972656 15.32582187652588 161.3924560546875 15.32582187652588 C 167.0965423583984 15.32582187652588 172.62890625 16.10297966003418 177.8359069824219 17.63566398620605 C 182.8579864501953 19.11395263671875 187.3660736083984 21.22869110107422 191.2349548339844 23.92116355895996 C 195.0904846191406 26.60434913635254 198.1150665283203 29.72482109069824 200.2247009277344 33.19592666625977 C 202.3983001708984 36.77232360839844 203.5004119873047 40.56840133666992 203.5004119873047 44.47869110107422 C 203.5004119873047 47.80577087402344 202.6955108642578 51.06948089599609 201.1081237792969 54.17911148071289 C 199.5677795410156 57.196533203125 197.3260955810547 60.00621795654297 194.4452972412109 62.53011322021484 C 191.5813751220703 65.03924560546875 188.1688842773438 67.19419097900391 184.3026123046875 68.93508148193359 C 180.3618774414063 70.70950317382813 176.0584564208984 72.00350952148438 171.5119018554688 72.78108215332031 L 171.0453338623047 72.86087799072266 L 171.0994873046875 73.33110809326172 C 171.1805725097656 74.03537750244141 171.2216644287109 74.7576904296875 171.2216644287109 75.47803497314453 C 171.2216644287109 78.84811401367188 170.3387756347656 82.11919403076172 168.5975189208984 85.20042419433594 C 166.9084930419922 88.18923950195313 164.487060546875 90.87600708007813 161.4004821777344 93.18605804443359 C 158.3032531738281 95.50411224365234 154.694091796875 97.32482147216797 150.6733093261719 98.59761047363281 C 146.50390625 99.91740417480469 142.0737457275391 100.5866088867188 137.5058898925781 100.5866088867188 C 134.6316986083984 100.5866088867188 131.7755889892578 100.3162155151367 129.0168762207031 99.78295135498047 L 128.61669921875 99.70561218261719 L 128.4602813720703 100.0820083618164 C 127.0941162109375 103.3693237304688 124.7903594970703 106.4882202148438 121.6129608154297 109.3520355224609 C 118.4736709594727 112.1815338134766 114.5716171264648 114.6830825805664 110.015251159668 116.7872467041016 C 105.4050140380859 118.9162673950195 100.2605438232422 120.5748977661133 94.72470092773438 121.7170562744141 C 88.99130249023438 122.9000091552734 82.96817016601563 123.4997940063477 76.82261657714844 123.4997940063477 Z" stroke="none"/>
      <path d="M 76.82261657714844 122.9997940063477 C 82.93430328369141 122.9997940063477 88.92343139648438 122.4034805297852 94.62367248535156 121.2273712158203 C 100.1221160888672 120.0929260253906 105.2300643920898 118.4463195800781 109.8056182861328 116.3333206176758 C 114.3163299560547 114.250244140625 118.1762771606445 111.7764511108398 121.2782211303711 108.9806365966797 C 124.4000396728516 106.166877746582 126.6610946655273 103.1083984375 127.9985656738281 99.89011383056641 L 128.3114013671875 99.13732147216797 L 129.1117706298828 99.29206085205078 C 131.8392791748047 99.81926727294922 134.6634674072266 100.0866088867188 137.5058898925781 100.0866088867188 C 155.8211212158203 100.0866088867188 170.7216644287109 89.0472412109375 170.7216644287109 75.47803497314453 C 170.7216644287109 74.77671813964844 170.6816711425781 74.07363891601563 170.6027526855469 73.38829803466797 L 170.4944915771484 72.44782257080078 L 171.4276123046875 72.28824615478516 C 175.9324645996094 71.51779174804688 180.1951751708984 70.23621368408203 184.0973510742188 68.47916412353516 C 187.9184417724609 66.75861358642578 191.2891387939453 64.63053131103516 194.1158294677734 62.15403366088867 C 196.9486999511719 59.67211151123047 199.1514129638672 56.91247940063477 200.6627807617188 53.9517936706543 C 202.2139129638672 50.91318893432617 203.0004119873047 47.72597885131836 203.0004119873047 44.47869110107422 C 203.0004119873047 28.67945289611816 184.3351745605469 15.82582187652588 161.3924560546875 15.82582187652588 C 154.0978088378906 15.82582187652588 146.9197845458984 17.14861106872559 140.6344299316406 19.65116310119629 L 139.9360961914063 19.9292163848877 L 139.4748840332031 19.33571624755859 C 137.3030395507813 16.54079627990723 134.8347015380859 13.98750591278076 132.1384124755859 11.74669075012207 C 129.4259643554688 9.49247932434082 126.4753799438477 7.548506259918213 123.3686218261719 5.968742847442627 C 120.2064590454102 4.360821723937988 116.8680953979492 3.123321771621704 113.4461975097656 2.290585041046143 C 109.9271697998047 1.434216618537903 106.2931442260742 1.000006079673767 102.6451187133789 1.000006079673767 C 96.5272216796875 1.000006079673767 90.57509613037109 2.198874473571777 84.95409393310547 4.563322067260742 L 84.56430053710938 4.727295398712158 L 84.17511749267578 4.561848163604736 C 80.76772308349609 3.113348245620728 76.885986328125 2.347690343856812 72.94959259033203 2.347690343856812 C 69.94988250732422 2.347690343856812 67.03482818603516 2.777979850769043 64.28538513183594 3.626637697219849 L 63.96875 3.724374532699585 L 63.6563835144043 3.613663911819458 C 63.25101470947266 3.469979763031006 62.83746337890625 3.330032348632813 62.42330551147461 3.196400880813599 L 62.41690826416016 3.194321870803833 L 62.41083145141602 3.19234824180603 L 62.3148307800293 3.161532402038574 L 62.30143356323242 3.157269239425659 L 62.2895393371582 3.153479814529419 L 62.1945686340332 3.123242855072021 L 62.17635726928711 3.11750602722168 C 62.07606506347656 3.085795640945435 61.97485733032227 3.054163932800293 61.87459182739258 3.023216724395752 L 61.85593414306641 3.01745343208313 L 61.8398551940918 3.012479782104492 L 61.75954055786133 2.987874507904053 L 61.70975112915039 2.972663879394531 L 61.63624954223633 2.950374603271484 L 61.58096313476563 2.933664083480835 L 61.5104866027832 2.912479877471924 L 61.42519760131836 2.887032508850098 L 61.37332916259766 2.871637582778931 L 61.35667037963867 2.866690397262573 L 61.26377868652344 2.839321851730347 L 61.23104095458984 2.829742908477783 L 61.21006774902344 2.823637723922729 L 61.13272476196289 2.801084995269775 L 61.12401580810547 2.798584938049316 L 61.07980346679688 2.785795450210571 L 60.99888229370117 2.762506008148193 L 60.94917297363281 2.748269319534302 L 60.84954071044922 2.719953536987305 L 60.83301544189453 2.715242862701416 L 60.82119750976563 2.711874485015869 L 60.69167327880859 2.675532341003418 L 60.66975021362305 2.669427156448364 L 60.65748596191406 2.666032314300537 L 60.55798721313477 2.638427019119263 L 60.51901245117188 2.627690315246582 L 60.41875076293945 2.600269317626953 L 60.38848876953125 2.592005968093872 L 60.26153945922852 2.557716608047485 L 60.25611877441406 2.55626916885376 L 60.25403594970703 2.555682420730591 C 60.16329193115234 2.531340837478638 60.07223129272461 2.507181167602539 59.98212051391602 2.483585119247437 L 59.97290802001953 2.481190204620361 L 59.96243667602539 2.478453397750854 L 59.83996200561523 2.446611404418945 L 59.82369995117188 2.442427158355713 C 59.64479064941406 2.396254301071167 59.46255493164063 2.350423097610474 59.28170776367188 2.306137561798096 L 59.26135635375977 2.301163911819458 C 57.3450927734375 1.83279550075531 55.37754058837891 1.486374497413635 53.41798782348633 1.272058725357056 L 53.41464614868164 1.271716594696045 L 53.41127777099609 1.271348237991333 C 53.21638107299805 1.250032424926758 53.01772308349609 1.229611396789551 52.8231201171875 1.210874557495117 L 52.81346130371094 1.209953427314758 L 52.80648803710938 1.209295511245728 L 52.66530227661133 1.195979714393616 L 52.66301345825195 1.195769190788269 C 52.51543426513672 1.182085037231445 52.36682891845703 1.169058680534363 52.21932983398438 1.156848192214966 L 52.21285629272461 1.156295537948608 L 52.20656585693359 1.155769228935242 L 52.06961822509766 1.144690275192261 L 52.06422424316406 1.144242882728577 L 52.05783081054688 1.143742918968201 L 51.92106628417969 1.133111357688904 L 51.91054153442383 1.132295608520508 C 51.81219863891602 1.124821901321411 51.71367263793945 1.117663979530334 51.61517333984375 1.110821843147278 L 51.61040878295898 1.110479712486267 L 51.60964584350586 1.110427141189575 L 51.605224609375 1.110111355781555 L 51.4736442565918 1.101190328598022 L 51.4608039855957 1.100348234176636 L 51.4472770690918 1.099453449249268 L 51.33169937133789 1.092006087303162 L 51.31404113769531 1.090874552726746 L 51.2996711730957 1.089953422546387 C 51.20293426513672 1.0839022397995 51.10625457763672 1.0781409740448 51.00935745239258 1.072694778442383 L 51.00811767578125 1.072637677192688 L 51.00599670410156 1.072508096694946 L 51.00453948974609 1.072427153587341 L 51.00343704223633 1.072359800338745 L 50.86777877807617 1.064953446388245 L 50.85514450073242 1.064295530319214 L 50.84096145629883 1.0635586977005 L 50.72456741333008 1.057585000991821 L 50.7069091796875 1.056690335273743 L 50.68906784057617 1.055821895599365 L 50.5726203918457 1.050242900848389 L 50.55930328369141 1.049611330032349 L 50.54838180541992 1.049111366271973 L 50.40419769287109 1.042663931846619 L 50.3949089050293 1.042269229888916 L 50.25991058349609 1.036664009094238 L 50.22727584838867 1.035427093505859 L 50.12217330932617 1.031400799751282 L 50.07317352294922 1.029637694358826 L 49.97517395019531 1.026242971420288 L 49.9322509765625 1.024795532226563 L 49.80243682861328 1.020716547966003 L 49.79632949829102 1.020506024360657 L 49.79225158691406 1.020374536514282 L 49.64740753173828 1.016321897506714 L 49.6317253112793 1.015927076339722 L 49.61877822875977 1.015611290931702 L 49.50735473632813 1.012848138809204 L 49.46056747436523 1.011742949485779 L 49.36782836914063 1.009769201278687 L 49.34198760986328 1.00924289226532 L 49.31769943237305 1.008769273757935 L 49.21322631835938 1.006874561309814 L 49.20401382446289 1.006690263748169 L 49.17519760131836 1.006190299987793 L 49.03417205810547 1.004085063934326 L 49.02772521972656 1.004032373428345 L 49.01617050170898 1.003900766372681 L 48.89388275146484 1.002479791641235 L 48.84759140014648 1.002032399177551 L 48.75109481811523 1.001216650009155 L 48.73638153076172 1.001111388206482 L 48.70109176635742 1.000900864601135 L 48.60340881347656 1.00042712688446 L 48.55838394165039 1.000242948532104 L 48.41809463500977 1.000006079673767 C 42.02167129516602 1.000006079673767 35.81669998168945 2.307716608047485 29.97551345825195 4.886795520782471 C 24.33017158508301 7.379426956176758 19.25919914245605 10.94879531860352 14.90348815917969 15.49574279785156 C 10.54488277435303 20.04571723937988 7.12261962890625 25.34469032287598 4.731777191162109 31.24547958374023 C 2.255566835403442 37.35692596435547 1.000014185905457 43.84984970092773 1.000014185905457 50.54389953613281 C 1.000014185905457 50.60742568969727 1.000145673751831 50.67034912109375 1.000382542610168 50.73332214355469 L 1.000514149665833 50.76171493530273 L 1.000645756721497 50.79084777832031 L 1.001461505889893 50.92903137207031 L 1.001619458198547 50.94926834106445 L 1.001935243606567 50.98895263671875 C 1.00232994556427 51.04053115844727 1.002908945083618 51.09592819213867 1.003514170646667 51.14947891235352 L 1.003829956054688 51.18008422851563 C 1.004593133926392 51.24340057373047 1.005461573600769 51.3051643371582 1.00643515586853 51.3676643371582 L 1.006882548332214 51.39376831054688 L 1.007329940795898 51.42087554931641 L 1.009777307510376 51.55826950073242 L 1.011066794395447 51.62358474731445 L 1.014198422431946 51.76529693603516 L 1.014435172080994 51.77687454223633 L 1.01527726650238 51.8139533996582 C 1.016751050949097 51.87534713745117 1.018382549285889 51.93803405761719 1.020093083381653 52.00021743774414 L 1.020882606506348 52.02742767333984 L 1.021487832069397 52.04787445068359 L 1.025829911231995 52.19292831420898 L 1.027619361877441 52.24979400634766 L 1.032251000404358 52.38719177246094 L 1.033329963684082 52.41787338256836 L 1.034303665161133 52.44600677490234 C 1.036540508270264 52.50734710693359 1.038751006126404 52.56661224365234 1.041172027587891 52.62782287597656 L 1.042461514472961 52.65929412841797 L 1.043172001838684 52.67655944824219 L 1.048908948898315 52.81398010253906 L 1.050461530685425 52.84947967529297 L 1.051961541175842 52.88384628295898 L 1.057803630828857 53.01084899902344 L 1.05819833278656 53.01945495605469 L 1.060829997062683 53.07497787475586 C 1.063698410987854 53.1343994140625 1.066751003265381 53.19642639160156 1.069777369499207 53.25537490844727 L 1.070672035217285 53.27224349975586 L 1.071698307991028 53.29126739501953 L 1.079856276512146 53.44321823120117 L 1.082250952720642 53.48616409301758 L 1.083487868309021 53.50803375244141 L 1.090777277946472 53.63432312011719 L 1.091935157775879 53.65419006347656 L 1.094777345657349 53.70205688476563 L 1.104119420051575 53.85348129272461 L 1.106593132019043 53.89284896850586 C 1.110250949859619 53.95026779174805 1.113961577415466 54.00661087036133 1.11785626411438 54.06455993652344 L 1.12196147441864 54.12463760375977 L 1.122987866401672 54.13958358764648 L 1.130829930305481 54.2524528503418 L 1.136435151100159 54.33066558837891 L 1.14501416683197 54.44705963134766 L 1.147040486335754 54.47429656982422 L 1.150040507316589 54.51495361328125 C 1.154408931732178 54.57232284545898 1.158856272697449 54.62966537475586 1.163408875465393 54.68705749511719 L 1.168803572654724 54.75400543212891 L 1.169672012329102 54.76458358764648 L 1.178224682807922 54.86953353881836 L 1.185593128204346 54.95771789550781 L 1.193987846374512 55.05584716796875 L 1.196093082427979 55.08021545410156 L 1.201224684715271 55.13942718505859 C 1.205961465835571 55.19321823120117 1.211040496826172 55.25005722045898 1.2160404920578 55.30466461181641 L 1.223172068595886 55.38150787353516 L 1.224382519721985 55.3946647644043 L 1.23309314250946 55.48760986328125 L 1.241987824440002 55.58047866821289 L 1.250408887863159 55.66695404052734 L 1.25232994556427 55.68645477294922 L 1.259882569313049 55.76290130615234 L 1.271514177322388 55.87703323364258 L 1.285593152046204 56.01287460327148 L 1.29525101184845 56.10421752929688 L 1.302987813949585 56.17605972290039 L 1.305645704269409 56.20055770874023 L 1.314935207366943 56.28516387939453 L 1.32556676864624 56.38095474243164 L 1.333250999450684 56.44863891601563 L 1.335435152053833 56.46761322021484 C 1.34196150302887 56.52497863769531 1.348724722862244 56.58353424072266 1.355408906936646 56.64042663574219 L 1.35840892791748 56.6661376953125 L 1.364487886428833 56.71771621704102 L 1.377303600311279 56.82403182983398 L 1.382935166358948 56.87050628662109 L 1.385619401931763 56.89261245727539 L 1.399145722389221 57.00218963623047 L 1.404408931732178 57.04408645629883 L 1.407540440559387 57.06892776489258 C 1.415935158729553 57.13553237915039 1.424645781517029 57.20389938354492 1.433356285095215 57.27090072631836 L 1.435303568840027 57.28579711914063 L 1.441119432449341 57.33058547973633 L 1.45340883731842 57.42334747314453 L 1.456066727638245 57.44329452514648 L 1.458277344703674 57.45989990234375 L 1.464198350906372 57.50424194335938 L 1.479619383811951 57.61790084838867 L 1.484750986099243 57.65524291992188 L 1.487645745277405 57.6761360168457 C 1.505514144897461 57.80569076538086 1.523829936981201 57.93479537963867 1.542514204978943 58.06313705444336 L 1.546066761016846 58.08732223510742 L 1.549645781517029 58.11200714111328 L 1.567408919334412 58.23208618164063 L 1.570750951766968 58.25434875488281 L 1.575014114379883 58.28287506103516 C 1.595329999923706 58.41827011108398 1.616198420524597 58.5534782409668 1.637382626533508 58.68734741210938 L 1.642251014709473 58.71826934814453 L 1.662882566452026 58.84695434570313 L 1.669172048568726 58.88568878173828 C 1.70056676864624 59.07921600341797 1.73340892791748 59.27466583251953 1.76748788356781 59.47045516967773 L 1.769829988479614 59.4838752746582 C 1.804698348045349 59.68387603759766 1.841066837310791 59.88532257080078 1.878119468688965 60.08366394042969 C 3.511645793914795 68.83397674560547 7.405171871185303 76.98184967041016 13.13585662841797 83.64421844482422 L 13.13980388641357 83.64876556396484 L 13.14348793029785 83.65306091308594 L 13.14401435852051 83.65366363525391 L 13.23680400848389 83.76119232177734 L 13.24372482299805 83.76918792724609 C 13.33172512054443 83.87079620361328 13.41954040527344 83.97137451171875 13.50790882110596 84.07173919677734 L 13.52217197418213 84.08795166015625 L 13.53311920166016 84.10040283203125 L 13.60990905761719 84.18724060058594 L 13.63798809051514 84.21890258789063 L 13.64277744293213 84.22429656982422 C 13.72132968902588 84.31279754638672 13.79993534088135 84.40068817138672 13.87967205047607 84.48921966552734 L 13.92504024505615 84.53958129882813 L 13.98798751831055 84.60908508300781 L 14.02411937713623 84.64890289306641 L 14.04056644439697 84.66703033447266 L 14.07114601135254 84.70058441162109 L 14.10009288787842 84.73237609863281 L 14.17848777770996 84.81800842285156 L 14.24661922454834 84.89208221435547 L 14.3197774887085 84.97137451171875 L 14.37046146392822 85.02606201171875 L 14.44156646728516 85.10253143310547 L 14.45535659790039 85.11732482910156 L 14.48527717590332 85.14939880371094 L 14.59361934661865 85.26497650146484 L 14.60111904144287 85.27297973632813 C 14.64161968231201 85.31603240966797 14.68227767944336 85.35903167724609 14.72235584259033 85.40132141113281 L 14.7296724319458 85.40903472900391 L 14.74735641479492 85.42766571044922 L 14.8483829498291 85.53376770019531 L 14.86119842529297 85.54721832275391 L 14.87267208099365 85.55924224853516 C 14.95646190643311 85.6468505859375 15.04148769378662 85.73511505126953 15.12580394744873 85.82200622558594 L 15.12780380249023 85.82400512695313 L 15.12975120544434 85.82603454589844 C 15.17090892791748 85.86842346191406 15.21348762512207 85.912109375 15.25754070281982 85.95713806152344 L 15.26469802856445 85.96445465087891 C 17.84609222412109 88.60245513916016 20.71522521972656 90.93260955810547 23.79240798950195 92.89019012451172 L 24.23385620117188 93.17100524902344 L 24.25482940673828 93.69379425048828 C 24.41130447387695 97.58976745605469 25.87390899658203 101.3719024658203 28.60206604003906 104.9351348876953 C 31.28311920166016 108.4368743896484 35.06627655029297 111.5843200683594 39.84646224975586 114.2900085449219 C 44.66840744018555 117.0193481445313 50.26356506347656 119.1620559692383 56.47648620605469 120.6585845947266 C 62.92596054077148 122.2121124267578 69.77138519287109 122.9997940063477 76.82261657714844 122.9997940063477 M 76.82261657714844 123.9997940063477 C 47.65464401245117 123.9997940063477 23.92961883544922 110.5163726806641 23.25564575195313 93.73392486572266 C 20.09717178344727 91.72463989257813 17.17867279052734 89.3502197265625 14.54996109008789 86.66384887695313 C 14.54640865325928 86.66024017333984 14.54340934753418 86.65716552734375 14.53985595703125 86.65353393554688 C 14.49772453308105 86.61045074462891 14.45425128936768 86.56584930419922 14.41225147247314 86.5225830078125 C 14.41082954406738 86.52114105224609 14.40972423553467 86.52000427246094 14.40832996368408 86.51856231689453 C 14.32219791412354 86.42982482910156 14.23540878295898 86.33974456787109 14.14990901947021 86.25032043457031 C 14.14151382446289 86.24153137207031 14.13361930847168 86.23324584960938 14.12522506713867 86.22445678710938 C 14.09104061126709 86.18866729736328 14.05593490600586 86.15179443359375 14.02188301086426 86.11589813232422 C 14.01348781585693 86.10708618164063 14.00546169281006 86.09860992431641 13.99709320068359 86.08979797363281 C 13.95559310913086 86.04600524902344 13.91409301757813 86.00211334228516 13.87275123596191 85.95816040039063 C 13.87067222595215 85.95595550537109 13.8672513961792 85.95229339599609 13.86517238616943 85.95008850097656 C 13.8280668258667 85.91063690185547 13.79172420501709 85.87184906005859 13.75475120544434 85.83229827880859 C 13.73954010009766 85.81600952148438 13.7253303527832 85.80074310302734 13.71011924743652 85.784423828125 C 13.68585586547852 85.75839996337891 13.66146183013916 85.73216247558594 13.63725090026855 85.70606231689453 C 13.62001419067383 85.68750762939453 13.60296154022217 85.66911315917969 13.58572483062744 85.65048217773438 C 13.56051445007324 85.62324523925781 13.5358829498291 85.59653472900391 13.5107250213623 85.56919097900391 C 13.48735618591309 85.54384613037109 13.4651985168457 85.51971435546875 13.44188213348389 85.49432373046875 C 13.41467189788818 85.46466064453125 13.38880348205566 85.43642425537109 13.36167240142822 85.40671539306641 C 13.34185600280762 85.38497924804688 13.32138252258301 85.36244964599609 13.30156707763672 85.34071350097656 C 13.28388214111328 85.32124328613281 13.26490879058838 85.30037689208984 13.24722480773926 85.28087615966797 C 13.22611904144287 85.25758361816406 13.20396137237549 85.23313903808594 13.18288230895996 85.20979309082031 C 13.16730403900146 85.19255828857422 13.15167236328125 85.17519378662109 13.13614559173584 85.15792846679688 C 13.0553035736084 85.06819152832031 12.97506713867188 84.97845458984375 12.89488220214844 84.88811492919922 C 12.88356685638428 84.87537384033203 12.87217235565186 84.86255645751953 12.86088275909424 84.84979248046875 C 12.83530330657959 84.82093048095703 12.80825138092041 84.79035186767578 12.78275108337402 84.76139831542969 C 12.77456665039063 84.75211334228516 12.76590919494629 84.74227142333984 12.75769805908203 84.73295593261719 C 12.66714572906494 84.63008880615234 12.57754039764404 84.52748107910156 12.48777770996094 84.42382049560547 C 12.48475074768066 84.42029571533203 12.48101425170898 84.41600799560547 12.47798824310303 84.41250610351563 C 12.44740867614746 84.37716674804688 12.41643524169922 84.34127044677734 12.38596153259277 84.30584716796875 C 12.38393497467041 84.30350494384766 12.38164615631104 84.30084991455078 12.37961959838867 84.29850769042969 C 6.655909061431885 77.64427185058594 2.598961591720581 69.39421844482422 0.8950930833816528 60.26716232299805 L 0.8949089050292969 60.26618957519531 C 0.8570404648780823 60.06337356567383 0.8202247023582458 59.859375 0.7846983671188354 59.65568923950195 C 0.7835931181907654 59.64921569824219 0.7827510237693787 59.64450454711914 0.7816194295883179 59.63803100585938 C 0.7474614977836609 59.44174194335938 0.7140404582023621 59.24290084838867 0.682066798210144 59.04582214355469 C 0.6799615025520325 59.03282165527344 0.6778562664985657 59.01982116699219 0.6757509708404541 59.00682067871094 C 0.6686983704566956 58.96313858032227 0.6616983413696289 58.91945266723633 0.654724657535553 58.87571716308594 C 0.6529352068901062 58.86432266235352 0.6516457200050354 58.85610961914063 0.6498299241065979 58.8447151184082 C 0.6280667781829834 58.70711135864258 0.6068036556243896 58.56929397583008 0.5860931277275085 58.43132019042969 C 0.5834088921546936 58.41334915161133 0.5810930728912354 58.39795303344727 0.5784088969230652 58.3800048828125 C 0.5723562836647034 58.33934783935547 0.5662246942520142 58.29790115356445 0.560250997543335 58.2571907043457 C 0.5578562617301941 58.24087524414063 0.5554878115653992 58.22447967529297 0.5530930757522583 58.20813751220703 C 0.5339089035987854 58.07640075683594 0.5152246952056885 57.94479370117188 0.4970141649246216 57.81271743774414 C 0.4943036139011383 57.79306030273438 0.4914878308773041 57.77285003662109 0.4888036251068115 57.75318908691406 C 0.4835141599178314 57.71450424194336 0.478356271982193 57.67642593383789 0.4731457233428955 57.63774108886719 C 0.4702773094177246 57.61640167236328 0.4676720499992371 57.59676742553711 0.4648299515247345 57.57545471191406 C 0.4596720337867737 57.53671646118164 0.4546720385551453 57.49932098388672 0.4495930969715118 57.46058654785156 C 0.4470141530036926 57.44087600708008 0.4441983699798584 57.41903305053711 0.4416457414627075 57.39932250976563 C 0.4328299462795258 57.33150482177734 0.423935204744339 57.26176834106445 0.4153825640678406 57.19384765625 C 0.4124878346920013 57.17082214355469 0.4096720516681671 57.14871597290039 0.4068036377429962 57.12566375732422 C 0.4020931124687195 57.08792877197266 0.3976983726024628 57.0521125793457 0.393066793680191 57.01434707641602 C 0.3900667726993561 56.98966217041016 0.3874351978302002 56.96821594238281 0.384461522102356 56.94350433349609 C 0.3801457285881042 56.90787506103516 0.3758299350738525 56.87208557128906 0.3715667724609375 56.83642578125 C 0.3684352040290833 56.81005859375 0.3653562664985657 56.78366470336914 0.3622509837150574 56.75727081298828 C 0.3554088771343231 56.69890213012695 0.3485141396522522 56.6392707824707 0.3418562710285187 56.58084869384766 C 0.3384615182876587 56.55111312866211 0.3351720571517944 56.52245330810547 0.3318299353122711 56.49274444580078 C 0.3281983733177185 56.46024322509766 0.3245404660701752 56.42718887329102 0.3209615349769592 56.39471817016602 C 0.3178562521934509 56.36661148071289 0.31467205286026 56.33755874633789 0.3115931153297424 56.30945205688477 C 0.3079615235328674 56.27584838867188 0.3044615089893341 56.24371719360352 0.3008825778961182 56.21010971069336 C 0.2976983785629272 56.18032073974609 0.2941983640193939 56.14713668823242 0.2910667955875397 56.1173210144043 C 0.2861720621585846 56.0706901550293 0.2814351916313171 56.02518844604492 0.2766720354557037 55.97848129272461 C 0.2725931107997894 55.93871688842773 0.2689088881015778 55.90271759033203 0.2649088799953461 55.8629264831543 C 0.2616457343101501 55.83034896850586 0.2584352195262909 55.79755783081055 0.2552246749401093 55.76495361328125 C 0.2523036301136017 55.73508453369141 0.2495404630899429 55.70682144165039 0.2466457337141037 55.67695236206055 C 0.2435930967330933 55.64540100097656 0.2404878437519073 55.61300659179688 0.2375141531229019 55.58145523071289 C 0.2345141470432281 55.54990005493164 0.2315667867660522 55.51840209960938 0.2286457270383835 55.48684692382813 C 0.2256983667612076 55.45526885986328 0.223014160990715 55.42666244506836 0.2201457321643829 55.39505767822266 C 0.2151194214820862 55.34021759033203 0.2099352031946182 55.28218841552734 0.2050931006669998 55.227294921875 C 0.2025931030511856 55.19892883300781 0.2001457363367081 55.17016220092773 0.1976983696222305 55.14179611206055 C 0.1948299407958984 55.10850524902344 0.1919615268707275 55.07524108886719 0.1891457289457321 55.04192733764648 C 0.1865667849779129 55.01134872436523 0.1841457337141037 54.98245239257813 0.1816194206476212 54.95187377929688 C 0.1785930991172791 54.91521835327148 0.1758299469947815 54.88134765625 0.1728825718164444 54.84466552734375 C 0.1707509905099869 54.81842803955078 0.1686194241046906 54.79229736328125 0.1665404736995697 54.76605987548828 C 0.161908894777298 54.70766448974609 0.1573825776576996 54.64926910400391 0.1529352068901062 54.5908203125 C 0.1511983573436737 54.56784820556641 0.1494878381490707 54.54429626464844 0.1477773189544678 54.52132034301758 C 0.144777312874794 54.48124313354492 0.1419878453016281 54.44340133666992 0.1390667855739594 54.40329742431641 C 0.1370930969715118 54.37590026855469 0.1352246850728989 54.34961318969727 0.1332773119211197 54.32221603393555 C 0.1305667906999588 54.28376770019531 0.1279615163803101 54.24629592895508 0.1253299415111542 54.20782089233398 C 0.1235930994153023 54.18258666992188 0.1217773109674454 54.15642547607422 0.1200930997729301 54.13121795654297 C 0.1161457300186157 54.07261276245117 0.1123562604188919 54.01508331298828 0.1086194142699242 53.95645523071289 C 0.1077773123979568 53.94326782226563 0.1068562567234039 53.92842864990234 0.1060404703021049 53.91524124145508 C 0.1027509942650795 53.86329650878906 0.09972468018531799 53.81416320800781 0.09659310430288315 53.76216506958008 C 0.0951983630657196 53.73908615112305 0.09388257563114166 53.71656036376953 0.09251415729522705 53.69345474243164 C 0.08996152132749557 53.64982223510742 0.08756678551435471 53.60826873779297 0.08509310334920883 53.56463623046875 C 0.08385626226663589 53.54261016845703 0.08256678283214569 53.52011108398438 0.08135625720024109 53.49808502197266 C 0.07848783582448959 53.4460334777832 0.07580363005399704 53.39582061767578 0.07306678593158722 53.34371566772461 C 0.07243520766496658 53.33161163330078 0.07177731394767761 53.31958389282227 0.07114573568105698 53.30747985839844 C 0.06801415234804153 53.24695205688477 0.06490889191627502 53.1837158203125 0.06198783963918686 53.12313842773438 C 0.06090889126062393 53.1010856628418 0.05990888923406601 53.07939910888672 0.05888257548213005 53.05734634399414 C 0.05682994425296783 53.01358413696289 0.05490889027714729 52.9720573425293 0.05296152085065842 52.92826843261719 C 0.05193520709872246 52.90508651733398 0.0509088896214962 52.88140106201172 0.04988257586956024 52.85821533203125 C 0.04785626009106636 52.81103134155273 0.04588257521390915 52.76387405395508 0.04398783668875694 52.7166633605957 C 0.04330362752079964 52.7000846862793 0.04261941835284233 52.68405914306641 0.04196152091026306 52.66748046875 C 0.03948783874511719 52.60508346557617 0.03722468018531799 52.5446891784668 0.0349615216255188 52.48221588134766 C 0.03425099700689316 52.46229553222656 0.03359309956431389 52.44274139404297 0.03288257494568825 52.42282104492188 C 0.03125099465250969 52.37553405761719 0.0296720489859581 52.32934951782227 0.02814573235809803 52.28203201293945 C 0.02748783864080906 52.26211166381836 0.02688257396221161 52.24321746826172 0.02627731114625931 52.22327041625977 C 0.02472468093037605 52.17424392700195 0.02327731251716614 52.12534713745117 0.02188257500529289 52.0762939453125 C 0.02140889130532742 52.05966567993164 0.02090889029204845 52.04374313354492 0.02046152204275131 52.0271110534668 C 0.01872467994689941 51.96450424194336 0.01706678606569767 51.90053176879883 0.01556678488850594 51.83787536621094 C 0.01517204847186804 51.82121658325195 0.01480362750589848 51.80405807495117 0.01443520653992891 51.78739929199219 C 0.01332994364202023 51.73995208740234 0.01225099619477987 51.69155883789063 0.01127731148153543 51.64408493041992 C 0.01082994323223829 51.62187576293945 0.01038257498294115 51.59942626953125 0.009961522184312344 51.57719039916992 C 0.00904046930372715 51.52971649169922 0.00825099553912878 51.48498153686523 0.007461522240191698 51.43748092651367 C 0.007172048557549715 51.4196891784668 0.00685625895857811 51.40171813964844 0.006566785275936127 51.38392639160156 C 0.005566785112023354 51.31942749023438 0.00467204861342907 51.25645446777344 0.003908890765160322 51.19190216064453 C 0.003777311649173498 51.18077087402344 0.003672048449516296 51.17005920410156 0.003566785249859095 51.15892791748047 C 0.00296152220107615 51.10626983642578 0.002382574835792184 51.04966354370117 0.001961522037163377 50.99695205688477 C 0.001777311670593917 50.97687530517578 0.001645732671022415 50.95695495605469 0.001487837987951934 50.9369010925293 C 0.00114573270548135 50.8892707824707 0.0008562590228393674 50.84292602539063 0.0006457326817326248 50.79526901245117 C 0.0005667852819897234 50.77632141113281 0.0004615221405401826 50.75645446777344 0.0003825747699011117 50.73748016357422 C 0.0001457326725358143 50.67279434204102 1.415373117197305e-05 50.60866546630859 1.415373117197305e-05 50.54389953613281 C 1.415373117197305e-05 22.62934875488281 21.67756652832031 6.081028914195485e-06 48.41809463500977 6.081028914195485e-06 C 48.46596145629883 6.081028914195485e-06 48.51382827758789 8.502839773427695e-05 48.56167221069336 0.0002429231390124187 C 48.57798767089844 0.0002955547242891043 48.59196090698242 0.0003481862950138748 48.60824966430664 0.0004271336656529456 C 48.64114761352539 0.0005587126361206174 48.67459487915039 0.0007166073191910982 48.70748901367188 0.0009271336602978408 C 48.72377777099609 0.001006081001833081 48.74127578735352 0.001137660001404583 48.757568359375 0.001242923084646463 C 48.79075241088867 0.001479765283875167 48.82393646240234 0.00176923896651715 48.85712051391602 0.002085028449073434 C 48.87340927124023 0.002216607332229614 48.88890838623047 0.002348186215385795 48.90519714355469 0.00253239693120122 C 48.94667053222656 0.002953449496999383 48.98806762695313 0.003427133662626147 49.02951431274414 0.003979765344411135 C 49.03601455688477 0.004058712627738714 49.03982925415039 0.004085028544068336 49.04632949829102 0.004163975827395916 C 49.0947265625 0.004821870476007462 49.14314651489258 0.005532396957278252 49.19151306152344 0.006321870721876621 C 49.20451354980469 0.006532396655529737 49.2183837890625 0.006795554887503386 49.23140716552734 0.007032396737486124 C 49.26648712158203 0.007637660019099712 49.30212020874023 0.008269239217042923 49.33720016479492 0.008953449316322803 C 49.35346221923828 0.009269239380955696 49.37098693847656 0.009637660346925259 49.38725280761719 0.009953449480235577 C 49.41901397705078 0.01061134412884712 49.451171875 0.01129555515944958 49.48293685913086 0.01200608070939779 C 49.49917221069336 0.01237450167536736 49.51543426513672 0.01274292357265949 49.53167343139648 0.01313765998929739 C 49.56969833374023 0.01403239648789167 49.60709381103516 0.01495344936847687 49.64509201049805 0.01595344953238964 C 49.65645980834961 0.01624292321503162 49.66380310058594 0.01640081778168678 49.6751708984375 0.0167166069149971 C 49.72406768798828 0.01800608076155186 49.77298736572266 0.01937450282275677 49.82185745239258 0.02082187123596668 C 49.82509231567383 0.02092713303864002 49.83169937133789 0.021137660369277 49.83493423461914 0.02124292403459549 C 49.87851333618164 0.0225323960185051 49.92130279541016 0.02390081807971001 49.9648551940918 0.02532187104225159 C 49.97943496704102 0.02579555474221706 49.99485778808594 0.02632187120616436 50.00943374633789 0.02682187035679817 C 50.04243469238281 0.02792713418602943 50.07609176635742 0.02908502891659737 50.10906600952148 0.03026923909783363 C 50.12525177001953 0.0308481864631176 50.14335632324219 0.03150608018040657 50.15954208374023 0.03211134299635887 C 50.19514465332031 0.03342713415622711 50.23088073730469 0.03479555621743202 50.26646041870117 0.03619029000401497 C 50.27777862548828 0.03661134466528893 50.28798675537109 0.03700608015060425 50.29933166503906 0.03745345026254654 C 50.34511947631836 0.03929555416107178 50.39169692993164 0.04121660813689232 50.43743515014648 0.0431639775633812 C 50.440673828125 0.0433218702673912 50.44298934936523 0.04340081661939621 50.44619750976563 0.04353239759802818 C 50.49591064453125 0.0456639751791954 50.54477691650391 0.04787450283765793 50.59443664550781 0.05016397684812546 C 50.60251235961914 0.05053239688277245 50.61009216308594 0.05090081691741943 50.61817169189453 0.05126924067735672 C 50.65796279907227 0.05313766002655029 50.69822311401367 0.05505871400237083 50.73798751831055 0.05700607970356941 C 50.74930191040039 0.05758502706885338 50.76448822021484 0.05832187086343765 50.77577590942383 0.05890081822872162 C 50.8151969909668 0.06087450310587883 50.85419845581055 0.06287450343370438 50.89361953735352 0.06495344638824463 C 50.90167236328125 0.06537450104951859 50.91193389892578 0.06590081751346588 50.91998672485352 0.06632187217473984 C 50.96693420410156 0.06882186979055405 51.01375198364258 0.07137450575828552 51.06067276000977 0.07400608062744141 C 51.06227874755859 0.07408502697944641 51.06361770629883 0.07416397333145142 51.06522369384766 0.07426924258470535 C 51.16430282592773 0.0798218697309494 51.26314544677734 0.0857166051864624 51.36206817626953 0.09190081804990768 C 51.37172317504883 0.09250608086585999 51.38459396362305 0.0933481827378273 51.39425277709961 0.0939534530043602 C 51.43388366699219 0.09645345062017441 51.47330474853516 0.09900607913732529 51.51290893554688 0.1016113460063934 C 51.52093505859375 0.1021376624703407 51.53104019165039 0.1027955561876297 51.53906631469727 0.103321872651577 C 51.58422470092773 0.1063218712806702 51.62930297851563 0.1093745008111 51.67443466186523 0.1125060841441154 C 51.67925262451172 0.1128481850028038 51.6796989440918 0.1128745004534721 51.68451309204102 0.1132166087627411 C 51.78522491455078 0.1202166080474854 51.88593673706055 0.1275323927402496 51.98648834228516 0.1351902931928635 C 51.99127578735352 0.1355587095022202 51.9925422668457 0.1356639713048935 51.99735641479492 0.1360324025154114 C 52.04369735717773 0.1395587176084518 52.09032821655273 0.1431902945041656 52.13661956787109 0.1468481868505478 C 52.14143371582031 0.1472429186105728 52.14648818969727 0.147637665271759 52.15130233764648 0.1480323970317841 C 52.1972770690918 0.1516902893781662 52.24280548095703 0.1553744971752167 52.28874969482422 0.1591639816761017 C 52.2935676574707 0.1595587134361267 52.29667282104492 0.1598218679428101 52.30146026611328 0.1602166146039963 C 52.45264434814453 0.1727429181337357 52.60448837280273 0.1860587149858475 52.75527572631836 0.2000323981046677 C 52.75688171386719 0.2001902908086777 52.75811767578125 0.200295552611351 52.75972366333008 0.200453445315361 C 52.80717086791992 0.2048481851816177 52.85461807250977 0.2093218713998795 52.90203857421875 0.2138745039701462 C 52.90682983398438 0.2143218666315079 52.91185760498047 0.2148218750953674 52.91661834716797 0.2152692377567291 C 53.11825180053711 0.2346639782190323 53.31911849975586 0.2552955448627472 53.52001571655273 0.2772692441940308 L 53.52206802368164 0.2774797677993774 C 55.5540657043457 0.4997166097164154 57.54943466186523 0.8532955646514893 59.49880218505859 1.329769253730774 L 59.49901580810547 1.329795598983765 C 59.69080352783203 1.376690268516541 59.88261795043945 1.424874544143677 60.07353973388672 1.474137663841248 C 60.07959365844727 1.475690245628357 60.08633041381836 1.477427124977112 60.09238433837891 1.479006052017212 C 60.13314437866211 1.489532351493835 60.17440795898438 1.500269293785095 60.21511840820313 1.510900855064392 C 60.22119903564453 1.512479782104492 60.22848892211914 1.514400839805603 60.23453903198242 1.515979766845703 C 60.32893371582031 1.540690302848816 60.42351531982422 1.565769195556641 60.5177001953125 1.591058731079102 C 60.51919937133789 1.591479778289795 60.51946258544922 1.591532349586487 60.52096176147461 1.59195339679718 C 60.56406784057617 1.603532433509827 60.60735702514648 1.615242958068848 60.65040969848633 1.626927137374878 C 60.66096115112305 1.629795551300049 60.67275238037109 1.63300609588623 60.68330383300781 1.635900855064392 C 60.71680450439453 1.645032405853271 60.75083160400391 1.654321908950806 60.7843017578125 1.663532376289368 C 60.79635620117188 1.666848182678223 60.81175231933594 1.671085000038147 60.82377624511719 1.674400806427002 C 60.85788345336914 1.6838219165802 60.89146041870117 1.693137645721436 60.92551422119141 1.702611327171326 C 60.93754196166992 1.705953478813171 60.94877624511719 1.70905876159668 60.96083068847656 1.712427139282227 C 61.00498962402344 1.724769234657288 61.04869842529297 1.737032413482666 61.09280395507813 1.7494797706604 C 61.10182952880859 1.752032399177551 61.11264419555664 1.75513768196106 61.12167358398438 1.75769031047821 C 61.15567016601563 1.767295598983765 61.19001388549805 1.777058720588684 61.2239875793457 1.786769270896912 C 61.24048614501953 1.791479706764221 61.25833129882813 1.796585083007813 61.27482986450195 1.801321864128113 C 61.3023567199707 1.809216618537903 61.32993698120117 1.817163944244385 61.3574333190918 1.825111389160156 C 61.37543487548828 1.830295562744141 61.39277648925781 1.83532190322876 61.4107780456543 1.840532422065735 C 61.43735504150391 1.848242878913879 61.46414566040039 1.856058716773987 61.49069976806641 1.863821864128113 C 61.51017379760742 1.869506120681763 61.52569961547852 1.874006032943726 61.54517364501953 1.879716634750366 C 61.57690811157227 1.889032363891602 61.60853958129883 1.898374557495117 61.64022445678711 1.907742977142334 C 61.66267395019531 1.914400815963745 61.68846130371094 1.922032356262207 61.71088409423828 1.928716659545898 C 61.73983001708984 1.937321901321411 61.76914596557617 1.946032404899597 61.79806518554688 1.954716563224792 C 61.82196044921875 1.961874485015869 61.84596252441406 1.969084978103638 61.86985778808594 1.976295590400696 C 61.88869857788086 1.981979727745056 61.90746307373047 1.987637639045715 61.92630386352539 1.993348240852356 C 61.95019912719727 2.000558614730835 61.97701263427734 2.008716583251953 62.00088119506836 2.015979766845703 C 62.01791000366211 2.021163940429688 62.03559494018555 2.026558637619019 62.05259323120117 2.031769275665283 C 62.07943344116211 2.039979696273804 62.10722351074219 2.048479795455933 62.13406753540039 2.056742906570435 C 62.14559173583984 2.060295581817627 62.15761947631836 2.064032316207886 62.16914749145508 2.067584991455078 C 62.27190780639648 2.099295616149902 62.37530517578125 2.131611347198486 62.47777557373047 2.164005994796753 C 62.48322296142578 2.165742874145508 62.48909378051758 2.167585134506226 62.49454116821289 2.1692955493927 C 62.52719879150391 2.179663896560669 62.56088256835938 2.190374612808228 62.59354019165039 2.200795650482178 C 62.60140991210938 2.203295469284058 62.60977554321289 2.205979824066162 62.61764526367188 2.208479881286621 C 62.65175247192383 2.219400882720947 62.68325042724609 2.229506015777588 62.71733093261719 2.240479707717896 C 62.72306823730469 2.242348194122314 62.72856521606445 2.244111299514771 62.73427581787109 2.245979785919189 C 63.15509414672852 2.38174295425415 63.57467269897461 2.523742914199829 63.99046325683594 2.671111345291138 C 66.75724792480469 1.817111372947693 69.78075408935547 1.347690343856812 72.94959259033203 1.347690343856812 C 77.16656494140625 1.347690343856812 81.12790679931641 2.179848194122314 84.56635284423828 3.641558647155762 C 90.15219879150391 1.291900873184204 96.25399017333984 6.081028914195485e-06 102.6451187133789 6.081028914195485e-06 C 117.8339614868164 6.081028914195485e-06 131.3878021240234 7.298900604248047 140.2645111083984 18.72211074829102 C 146.4918060302734 16.2426643371582 153.7044830322266 14.82582187652588 161.3924560546875 14.82582187652588 C 184.9234619140625 14.82582187652588 204.0004119873047 28.10137367248535 204.0004119873047 44.47869110107422 C 204.0004119873047 58.40687561035156 190.2001953125 70.09210968017578 171.59619140625 73.27392578125 C 171.6798553466797 74.00055694580078 171.7216644287109 74.73563385009766 171.7216644287109 75.47803497314453 C 171.7216644287109 89.62213897705078 156.4027252197266 101.0866088867188 137.5058898925781 101.0866088867188 C 134.5415344238281 101.0866088867188 131.6643524169922 100.8039779663086 128.9219818115234 100.2738723754883 C 123.265251159668 113.8854522705078 102.0861968994141 123.9997940063477 76.82261657714844 123.9997940063477 Z" stroke="none" fill="#707070"/>
    </g>
    <g id="Group_1" data-name="Group 1" transform="translate(-584.803 365.711) rotate(-40)">
      <g id="Subtraction_1" data-name="Subtraction 1" transform="translate(156 898)" fill="#1e1e4d">
        <path d="M 54.00000381469727 106.5 C 46.91189575195313 106.5 40.03660583496094 105.1121063232422 33.56514358520508 102.3748931884766 C 27.31365013122559 99.73073577880859 21.69892883300781 95.94507598876953 16.87692832946777 91.12307739257813 C 12.05492782592773 86.30107879638672 8.269266128540039 80.68635559082031 5.625112533569336 74.43487548828125 C 2.88789701461792 67.96340179443359 1.500004768371582 61.08810806274414 1.500004768371582 54 C 1.500004768371582 46.91189193725586 2.88789701461792 40.03659820556641 5.625112533569336 33.56513977050781 C 8.269266128540039 27.31364631652832 12.05492782592773 21.69892311096191 16.87692832946777 16.87693786621094 C 21.69892883300781 12.05492305755615 27.31365013122559 8.269261360168457 33.56512832641602 5.625107765197754 C 40.03660583496094 2.887892246246338 46.91189575195313 1.5 54.00000381469727 1.5 C 61.0764045715332 1.5 67.94122314453125 2.883522987365723 74.40380859375 5.612138271331787 C 80.64659118652344 8.247969627380371 86.25594329833984 12.02236938476563 91.0760498046875 16.83052253723145 C 91.2698974609375 17.02389144897461 91.46244812011719 17.21892166137695 91.6529541015625 17.41484260559082 C 83.74700164794922 11.20744609832764 73.79212188720703 7.5 63.00000381469727 7.5 C 37.35982131958008 7.5 16.5000057220459 28.35981559753418 16.5000057220459 54 C 16.5000057220459 79.64018249511719 37.35982131958008 100.5 63.00000381469727 100.5 C 73.79212188720703 100.5 83.74710845947266 96.79246520996094 91.65306854248047 90.58506774902344 C 91.4622802734375 90.78129577636719 91.27019500732422 90.97584533691406 91.0760498046875 91.16950988769531 C 86.25595855712891 95.97761535644531 80.6466064453125 99.75202941894531 74.40378570556641 102.3878631591797 C 67.94126892089844 105.1164779663086 61.07643508911133 106.5 54.00000381469727 106.5 Z" stroke="none"/>
        <path d="M 54 105 C 60.87491607666016 105 67.54343414306641 103.6562194824219 73.82035064697266 101.0059814453125 C 74.23822784423828 100.8295440673828 74.65311431884766 100.6478881835938 75.06510162353516 100.4609832763672 C 71.20775604248047 101.4653091430664 67.164306640625 102 63 102 C 36.53271484375 102 14.99999809265137 80.46728515625 14.99999809265137 54 C 14.99999809265137 27.53271675109863 36.53271484375 6 63 6 C 67.164306640625 6 71.20771026611328 6.534678936004639 75.06505584716797 7.539009571075439 C 74.65306854248047 7.352098941802979 74.23821258544922 7.170454025268555 73.82033538818359 6.994016647338867 C 67.54343414306641 4.343783378601074 60.87491607666016 3 54 3 C 47.11373138427734 3 40.4350471496582 4.348016738891602 34.14944839477539 7.006616592407227 C 28.07674789428711 9.575149536132813 22.62229919433594 13.25286674499512 17.93758201599121 17.93758392333984 C 13.25284862518311 22.62231636047363 9.575131416320801 28.07676696777344 7.006615161895752 34.14946746826172 C 4.348015308380127 40.43503189086914 2.999998331069946 47.11371612548828 2.999998331069946 54 C 2.999998331069946 60.88626480102539 4.348015308380127 67.56494903564453 7.006615161895752 73.85054779052734 C 9.575131416320801 79.92323303222656 13.25284862518311 85.377685546875 17.93758201599121 90.06241607666016 C 22.62229919433594 94.74713134765625 28.07674789428711 98.42485046386719 34.14946365356445 100.9933853149414 C 40.4350471496582 103.651985168457 47.11373138427734 105 54 105 M 54 108 C 46.71004867553711 108 39.63818359375 106.5722503662109 32.98079681396484 103.7564010620117 C 26.55051422119141 101.0366134643555 20.77551460266113 97.14299774169922 15.81626510620117 92.18373107910156 C 10.85699844360352 87.22447967529297 6.963381767272949 81.44950103759766 4.243598461151123 75.01920318603516 C 1.427748441696167 68.36181640625 -1.588948521202838e-06 61.28995132446289 -1.588948521202838e-06 54 C -1.588948521202838e-06 46.71004867553711 1.427748441696167 39.63816833496094 4.243598461151123 32.98080062866211 C 6.963381767272949 26.55050086975098 10.85699844360352 20.77551651000977 15.81626510620117 15.8162670135498 C 20.77551460266113 10.85700035095215 26.55051422119141 6.963383197784424 32.98079681396484 4.243599891662598 C 39.63818359375 1.427749991416931 46.71004867553711 0 54 0 C 61.27793121337891 0 68.33906555175781 1.423266649246216 74.98725128173828 4.230266571044922 C 81.40861511230469 6.941500186920166 87.17806243896484 10.82351684570313 92.13539886474609 15.76853370666504 C 97.09207916259766 20.71290016174316 100.9882659912109 26.47203254699707 103.7157516479492 32.88594818115234 C 106.5389785766602 39.52503204345703 107.9803314208984 46.57958221435547 107.9997634887695 53.85369873046875 C 107.9214630126953 29.12128257751465 87.73554992675781 9 63 9 C 38.18691635131836 9 17.99999809265137 29.18691635131836 17.99999809265137 54 C 17.99999809265137 78.81307983398438 38.18691635131836 99 63 99 C 87.73466491699219 99 107.9214630126953 78.87871551513672 107.9997634887695 54.14630126953125 C 107.9803314208984 61.42200088500977 106.5383148193359 68.47657012939453 103.7157516479492 75.11405181884766 C 100.9882659912109 81.52796936035156 97.09207916259766 87.28710174560547 92.13539886474609 92.23146820068359 C 87.17806243896484 97.17648315429688 81.40861511230469 101.0585174560547 74.98725128173828 103.7697296142578 C 68.33906555175781 106.5767364501953 61.27793121337891 108 54 108 Z" stroke="none" fill="#fff"/>
      </g>
      <g id="Ellipse_3" data-name="Ellipse 3" transform="translate(192 926)" fill="#1e1e4d" stroke="#fff" stroke-width="3">
        <circle cx="27" cy="27" r="27" stroke="none"/>
        <circle cx="27" cy="27" r="25.5" fill="none"/>
      </g>
    </g>
  </g>
</svg>
